HIERARCHY
ROOT Hips
{
	OFFSET 0.00 0.00 0.00
	CHANNELS 6 Xposition Yposition Zposition Xrotation Yrotation Zrotation
	JOINT Spine
	{
		OFFSET 0.00000 1.70439 2.55658
		CHANNELS 3 Xrotation Yrotation Zrotation
		JOINT Spine1
		{
			OFFSET 0.00000 0.59193 3.35699
			CHANNELS 3 Xrotation Yrotation Zrotation
			JOINT Spine2
			{
				OFFSET 0.00000 0.29709 3.39581
				CHANNELS 3 Xrotation Yrotation Zrotation
				JOINT Spine3
				{
					OFFSET 0.00000 0.00000 3.40878
					CHANNELS 3 Xrotation Yrotation Zrotation
					JOINT Neck
					{
						OFFSET 0.00000 -1.27829 8.94804
						CHANNELS 3 Xrotation Yrotation Zrotation
						JOINT Head
						{
							OFFSET 0.00000 -0.81390 4.61586
							CHANNELS 3 Xrotation Yrotation Zrotation
							End Site
							{
								OFFSET 0.00000 0.00000 5.51796
							}
						}
					}
					JOINT RightShoulder
					{
						OFFSET -1.18875 -1.98125 6.41924
						CHANNELS 3 Xrotation Yrotation Zrotation
						JOINT RightArm
						{
							OFFSET -5.90412 -0.00000 0.00000
							CHANNELS 3 Xrotation Yrotation Zrotation
							JOINT RightForeArm
							{
								OFFSET -11.94674 -0.00000 0.00000
								CHANNELS 3 Xrotation Yrotation Zrotation
								JOINT RightHand
								{
									OFFSET -10.17720 -0.00000 0.00000
									CHANNELS 3 Xrotation Yrotation Zrotation
									JOINT RightHandEnd
									{
										OFFSET -2.84518 -0.00000 0.00000
										CHANNELS 3 Xrotation Yrotation Zrotation
										End Site
										{
											OFFSET -2.84518 -0.00000 0.00000
										}
									}
									JOINT RightHandThumb1
									{
										OFFSET -1.13807 -1.89678 -0.75871
										CHANNELS 3 Xrotation Yrotation Zrotation
										End Site
										{
											OFFSET -2.74823 -0.73639 0.00000
										}
									}
								}
							}
						}
					}
					JOINT LeftShoulder
					{
						OFFSET 1.18875 -1.98125 6.41924
						CHANNELS 3 Xrotation Yrotation Zrotation
						JOINT LeftArm
						{
							OFFSET 5.90412 0.00000 0.00000
							CHANNELS 3 Xrotation Yrotation Zrotation
							JOINT LeftForeArm
							{
								OFFSET 11.94674 0.00000 0.00000
								CHANNELS 3 Xrotation Yrotation Zrotation
								JOINT LeftHand
								{
									OFFSET 10.17720 0.00000 0.00000
									CHANNELS 3 Xrotation Yrotation Zrotation
									JOINT LeftHandEnd
									{
										OFFSET 2.84518 0.00000 0.00000
										CHANNELS 3 Xrotation Yrotation Zrotation
										End Site
										{
											OFFSET 2.84518 0.00000 0.00000
										}
									}
									JOINT LeftHandThumb1
									{
										OFFSET 1.13807 -1.89678 -0.75871
										CHANNELS 3 Xrotation Yrotation Zrotation
										End Site
										{
											OFFSET 2.74823 -0.73639 0.00000
										}
									}
								}
							}
						}
					}
				}
			}
		}
	}
	JOINT RightUpLeg
	{
		OFFSET -3.52662 0.00000 -1.03025
		CHANNELS 3 Xrotation Yrotation Zrotation
		JOINT RightLeg
		{
			OFFSET 0.00000 0.00000 -17.80159
			CHANNELS 3 Xrotation Yrotation Zrotation
			JOINT RightFoot
			{
				OFFSET 0.00000 0.00000 -16.85992
				CHANNELS 3 Xrotation Yrotation Zrotation
				JOINT RightToeBase
				{
					OFFSET -0.00000 -5.42953 -1.97619
					CHANNELS 3 Xrotation Yrotation Zrotation
					End Site
					{
						OFFSET 0.00000 -2.85300 0.00000
					}
				}
			}
		}
	}
	JOINT LeftUpLeg
	{
		OFFSET 3.52662 0.00000 -1.03025
		CHANNELS 3 Xrotation Yrotation Zrotation
		JOINT LeftLeg
		{
			OFFSET 0.00000 0.00000 -17.80159
			CHANNELS 3 Xrotation Yrotation Zrotation
			JOINT LeftFoot
			{
				OFFSET 0.00000 0.00000 -16.85992
				CHANNELS 3 Xrotation Yrotation Zrotation
				JOINT LeftToeBase
				{
					OFFSET -0.00000 -5.42953 -1.97619
					CHANNELS 3 Xrotation Yrotation Zrotation
					End Site
					{
						OFFSET 0.00000 -2.85300 0.00000
					}
				}
			}
		}
	}
}
MOTION
Frames: 9
Frame Time: 0.008342
 -3.3609 -5.1026 37.9998 21.3014 -4.3702 -160.5013 7.9068 -1.0518 -2.2184 2.9229 -1.0292 -0.2452 5.1599 -4.6252 -3.5896 1.6697 -0.8545 0.9399 11.7092 -5.8288 -4.0927 9.2263 -1.7574 -2.1376 12.9751 -24.6748 -2.9626 11.5965 -35.0346 10.6533 -0.0000 0.0000 30.7850 -6.7536 13.3522 -1.7578 -0.0000 0.0000 0.0000 0.0000 0.0000 0.0000 17.5512 9.0225 -7.3092 35.1864 33.5146 -38.3772 -0.0000 0.0000 -29.5847 -5.9509 -8.0794 -4.5250 0.0000 0.0000 0.0000 -0.0000 0.0000 0.0000 -72.8316 23.0589 -8.7235 95.2776 -0.0000 -0.0000 0.9032 -8.6013 -10.3527 -5.7689 0.0000 0.0000 12.0870 -6.5217 6.1025 24.4577 0.0000 -0.0000 -18.7327 -3.3504 -6.8504 4.2771 -0.0000 -0.0000
 -3.3408 -5.0765 37.9992 21.2855 -4.3041 -160.4259 7.8521 -1.0042 -2.1826 2.9142 -1.0310 -0.2457 5.1272 -4.5720 -3.5695 1.6609 -0.8551 0.9397 11.7104 -5.8967 -4.1440 9.2191 -1.7826 -2.2013 12.9948 -24.7088 -3.0087 11.5906 -35.1285 10.6000 -0.0000 -0.0000 30.8712 -6.7035 13.3079 -1.7691 -0.0000 -0.0000 0.0000 0.0000 0.0000 0.0000 17.5560 9.0064 -7.2957 35.2409 33.4772 -38.3346 0.0000 0.0000 -29.5245 -5.9551 -8.0367 -4.5025 0.0000 0.0000 -0.0000 0.0000 -0.0000 -0.0000 -73.0942 22.9584 -8.3583 98.6684 0.0000 -0.0000 0.7053 -8.5743 -10.2697 -5.8723 -0.0000 -0.0000 12.1169 -6.5502 6.1464 24.4448 -0.0000 -0.0000 -18.7573 -3.2170 -6.9850 4.3009 -0.0000 0.0000
 -3.3204 -5.0505 37.9984 21.2837 -4.2576 -160.3518 7.8226 -0.9715 -2.1602 2.8830 -1.0365 -0.2305 5.1017 -4.5410 -3.5533 1.6527 -0.8441 0.9417 11.7056 -5.9513 -4.1903 9.2096 -1.8069 -2.2662 13.0277 -24.7263 -3.0439 11.5897 -35.2393 10.5597 0.0000 0.0000 30.9516 -6.6743 13.2705 -1.7677 -0.0000 -0.0000 0.0000 0.0000 -0.0000 0.0000 17.5508 9.0042 -7.2882 35.2754 33.4625 -38.2593 0.0000 0.0000 -29.4752 -5.9499 -7.9918 -4.4767 0.0000 -0.0000 0.0000 -0.0000 -0.0000 0.0000 -73.2726 22.8321 -8.0492 101.9698 -0.0000 0.0000 0.5627 -8.5428 -10.1689 -5.9805 0.0000 -0.0000 12.1482 -6.5951 6.1633 24.4457 0.0000 -0.0000 -18.7922 -3.1078 -7.0936 4.3120 -0.0000 -0.0000
 -3.2991 -5.0248 37.9975 21.2871 -4.2483 -160.2918 7.7738 -0.9921 -2.1287 2.8759 -1.0268 -0.2278 5.0714 -4.5015 -3.5215 1.6448 -0.8384 0.9427 11.6939 -5.9967 -4.2301 9.1979 -1.8303 -2.3311 13.0821 -24.7395 -3.0622 11.5961 -35.3529 10.5402 -0.0000 0.0000 31.0221 -6.6705 13.2438 -1.7545 -0.0000 -0.0000 0.0000 0.0000 0.0000 0.0000 17.5521 9.0072 -7.2667 35.3069 33.4350 -38.2021 -0.0000 0.0000 -29.4109 -5.9600 -7.9627 -4.4574 0.0000 -0.0000 0.0000 -0.0000 0.0000 -0.0000 -73.3766 22.6608 -7.8052 105.1717 -0.0000 0.0000 0.4842 -8.5192 -10.0451 -6.0879 -0.0000 -0.0000 12.1681 -6.6744 6.1962 24.4642 0.0000 -0.0000 -18.8437 -3.0216 -7.2049 4.3100 -0.0000 -0.0000
 -3.2817 -5.0003 37.9929 21.2620 -4.1733 -160.2512 7.7428 -0.9227 -2.1114 2.8494 -1.0600 -0.2204 5.0371 -4.4453 -3.4822 1.6371 -0.8304 0.9432 11.6812 -6.0251 -4.2606 9.1875 -1.8571 -2.3980 13.1485 -24.7247 -3.0687 11.6198 -35.4897 10.5337 -0.0000 -0.0000 31.0913 -6.6826 13.2251 -1.7333 -0.0000 -0.0000 0.0000 0.0000 0.0000 0.0000 17.5447 9.0131 -7.2395 35.3292 33.4388 -38.1321 -0.0000 0.0000 -29.3543 -5.9670 -7.9318 -4.4411 0.0000 0.0000 0.0000 0.0000 0.0000 -0.0000 -73.4807 22.4988 -7.4915 108.3001 -0.0000 -0.0000 0.4735 -8.5167 -9.8661 -6.1905 -0.0000 0.0000 12.1862 -6.6503 6.1486 24.4712 0.0000 -0.0000 -18.8808 -2.9789 -7.2384 4.2901 -0.0000 -0.0000
 -3.2618 -4.9765 37.9897 21.2525 -4.1771 -160.2137 7.6918 -0.9584 -2.0920 2.8390 -1.0450 -0.2124 5.0035 -4.4132 -3.4419 1.6309 -0.8249 0.9456 11.6637 -6.0431 -4.2836 9.1717 -1.8791 -2.4637 13.2259 -24.7153 -3.0561 11.6588 -35.6082 10.5476 -0.0000 -0.0000 31.1443 -6.7153 13.2070 -1.7040 -0.0000 0.0000 0.0000 0.0000 0.0000 0.0000 17.5414 9.0426 -7.2032 35.3365 33.4249 -38.0606 -0.0000 0.0000 -29.2893 -5.9930 -7.9117 -4.4259 -0.0000 0.0000 0.0000 -0.0000 0.0000 -0.0000 -73.4877 22.2844 -7.2912 111.3093 -0.0000 0.0000 0.5144 -8.5454 -9.6514 -6.2880 -0.0000 0.0000 12.1794 -6.7119 6.1276 24.5127 0.0000 -0.0000 -18.9456 -2.9563 -7.2877 4.2589 -0.0000 -0.0000
 -3.2428 -4.9537 37.9852 21.2335 -4.1757 -160.1956 7.6413 -0.9656 -2.0697 2.8280 -1.0625 -0.2051 4.9667 -4.3755 -3.3958 1.6254 -0.8162 0.9473 11.6448 -6.0476 -4.2988 9.1579 -1.9040 -2.5281 13.3154 -24.6960 -3.0302 11.7236 -35.7226 10.5900 0.0000 0.0000 31.1805 -6.7636 13.1948 -1.6625 -0.0000 0.0000 0.0000 0.0000 -0.0000 0.0000 17.5348 9.0788 -7.1654 35.3263 33.4362 -37.9745 -0.0000 -0.0000 -29.2272 -6.0238 -7.8930 -4.4142 -0.0000 0.0000 -0.0000 -0.0000 0.0000 -0.0000 -73.4593 22.0469 -7.0903 114.2221 0.0000 -0.0000 0.5971 -8.6145 -9.3792 -6.3817 -0.0000 -0.0000 12.1654 -6.7487 6.0798 24.5566 -0.0000 -0.0000 -19.0107 -2.9648 -7.2994 4.2136 0.0000 0.0000
 -3.2250 -4.9322 37.9797 21.2048 -4.1719 -160.1908 7.5909 -0.9677 -2.0513 2.8137 -1.0883 -0.2004 4.9275 -4.3323 -3.3434 1.6217 -0.8072 0.9500 11.6269 -6.0438 -4.3064 9.1430 -1.9259 -2.5905 13.4120 -24.6688 -2.9918 11.8081 -35.8346 10.6539 -0.0000 0.0000 31.2013 -6.8119 13.1810 -1.6194 -0.0000 0.0000 0.0000 -0.0000 0.0000 -0.0000 17.5230 9.1259 -7.1172 35.3084 33.4555 -37.8849 0.0000 -0.0000 -29.1645 -6.0653 -7.8771 -4.4036 0.0000 -0.0000 -0.0000 -0.0000 0.0000 0.0000 -73.3964 21.7955 -6.8902 117.0362 0.0000 -0.0000 0.7058 -8.7287 -9.0413 -6.4721 0.0000 0.0000 12.1417 -6.7662 6.0082 24.6041 0.0000 -0.0000 -19.0770 -3.0014 -7.2813 4.1572 0.0000 -0.0000
 -3.2079 -4.9118 37.9735 21.1678 -4.1701 -160.1968 7.5364 -0.9683 -2.0365 2.7985 -1.1123 -0.1949 4.8905 -4.2931 -3.2875 1.6172 -0.8027 0.9519 11.6103 -6.0274 -4.3067 9.1295 -1.9492 -2.6504 13.5123 -24.6412 -2.9415 11.9202 -35.9276 10.7398 -0.0000 -0.0000 31.2093 -6.8611 13.1663 -1.5800 -0.0000 0.0000 0.0000 0.0000 0.0000 0.0000 17.5146 9.1816 -7.0659 35.2759 33.4879 -37.7916 -0.0000 -0.0000 -29.1005 -6.1179 -7.8654 -4.3930 -0.0000 0.0000 0.0000 0.0000 -0.0000 -0.0000 -73.2996 21.5318 -6.6934 119.7493 0.0000 0.0000 0.8240 -8.8888 -8.6362 -6.5613 -0.0000 -0.0000 12.1069 -6.7711 5.9161 24.6562 0.0000 -0.0000 -19.1444 -3.0608 -7.2376 4.0923 0.0000 0.0000
